<?xml version="1.0" encoding="UTF-8" standalone="no"?>
<svg
   xmlns:dc="http://purl.org/dc/elements/1.1/"
   xmlns:cc="http://creativecommons.org/ns#"
   xmlns:rdf="http://www.w3.org/1999/02/22-rdf-syntax-ns#"
   xmlns:svg="http://www.w3.org/2000/svg"
   xmlns="http://www.w3.org/2000/svg"
   viewBox="0 0 170.66667 74.666664"
   height="74.666664"
   width="170.66667"
   xml:space="preserve"
   id="svg2"
   version="1.1"><metadata
     id="metadata8"><rdf:RDF><cc:Work
         rdf:about=""><dc:format>image/svg+xml</dc:format><dc:type
           rdf:resource="http://purl.org/dc/dcmitype/StillImage" /></cc:Work></rdf:RDF></metadata><defs
     id="defs6" /><g
     transform="matrix(1.3333333,0,0,-1.3333333,0,74.666667)"
     id="g10"><g
       transform="scale(0.1)"
       id="g12"><path
         id="path14"
         style="fill:#ffffff;fill-opacity:1;fill-rule:nonzero;stroke:none"
         d="m 59.4648,353.207 c 5.211,0 9.9532,2.117 13.3633,5.527 3.4063,3.411 5.5274,8.149 5.5274,13.364 0,5.211 -2.1211,9.949 -5.5274,13.359 -3.4101,3.41 -8.1523,5.527 -13.3633,5.527 -5.2148,0 -9.9492,-2.117 -13.3593,-5.527 -3.4102,-3.41 -5.5274,-8.148 -5.5274,-13.359 0,-5.215 2.1172,-9.953 5.5274,-13.364 3.4101,-3.41 8.1445,-5.527 13.3593,-5.527 z M 241.367,267.063 c 5.215,0 9.953,2.117 13.363,5.527 3.411,3.41 5.528,8.148 5.528,13.359 0,5.215 -2.117,9.953 -5.528,13.364 -3.41,3.41 -8.148,5.527 -13.363,5.527 -5.211,0 -9.949,-2.117 -13.359,-5.527 -3.41,-3.411 -5.528,-8.149 -5.528,-13.364 0,-5.211 2.118,-9.949 5.528,-13.359 3.41,-3.41 8.148,-5.527 13.359,-5.527 z M 280.5,246.82 c -5.828,-5.828 -12.953,-10.363 -20.902,-13.136 V 114.063 L 150.414,4.89063 41.2383,114.063 v 205.765 c -7.9531,2.774 -15.0742,7.309 -20.9024,13.137 C 10.3242,342.977 4.125,356.82 4.125,372.098 c 0,15.277 6.1992,29.117 16.2109,39.129 10.0118,10.011 23.8516,16.211 39.1289,16.211 15.2774,0 29.1172,-6.2 39.1329,-16.211 10.0113,-10.012 16.2113,-23.852 16.2113,-39.129 0,-15.278 -6.2,-29.121 -16.2113,-39.133 -5.8282,-5.828 -12.9571,-10.363 -20.9063,-13.137 V 171.113 c 5.2344,2.715 10.6367,5.145 16.1914,7.274 12.2032,4.676 25.1132,7.883 38.5152,9.41 v 255.469 c -7.949,2.773 -15.074,7.308 -20.902,13.136 -10.016,10.012 -16.2147,23.852 -16.2147,39.133 0,15.274 6.1987,29.117 16.2147,39.129 10.012,10.012 23.856,16.211 39.129,16.211 15.277,0 29.117,-6.199 39.133,-16.211 10.012,-10.012 16.211,-23.855 16.211,-39.129 0,-15.281 -6.199,-29.121 -16.211,-39.133 -5.828,-5.828 -12.953,-10.363 -20.906,-13.136 v -255.52 c 13.718,-1.609 26.933,-4.98 39.402,-9.887 5.098,-2.004 10.062,-4.265 14.887,-6.769 v 62.594 c -7.95,2.773 -15.075,7.308 -20.903,13.136 -10.011,10.012 -16.211,23.856 -16.211,39.129 0,15.281 6.2,29.121 16.211,39.133 10.012,10.012 23.856,16.211 39.129,16.211 15.278,0 29.121,-6.199 39.133,-16.211 10.012,-10.012 16.211,-23.852 16.211,-39.133 0,-15.273 -6.199,-29.117 -16.211,-39.129 z M 150.625,476.645 c 5.215,0 9.949,2.117 13.359,5.527 3.411,3.41 5.532,8.148 5.532,13.363 0,5.211 -2.121,9.949 -5.532,13.36 -3.41,3.41 -8.144,5.527 -13.359,5.527 -5.211,0 -9.949,-2.117 -13.359,-5.527 -3.411,-3.411 -5.528,-8.149 -5.528,-13.36 0,-5.215 2.117,-9.953 5.528,-13.363 3.41,-3.41 8.148,-5.527 13.359,-5.527 z M 78.1797,128.66 120.656,86.1836 c 8.856,4.7578 18.996,7.4492 29.758,7.4492 10.762,0 20.895,-2.6953 29.754,-7.457 l 42.492,42.4882 c -8.457,6.25 -17.738,11.418 -27.644,15.313 -13.746,5.414 -28.797,8.39 -44.602,8.39 -15.383,0 -30.078,-2.832 -43.574,-8.008 -10.297,-3.945 -19.9259,-9.25 -28.6603,-15.699" /><path
         id="path16"
         style="fill:#ffffff;fill-opacity:1;fill-rule:nonzero;stroke:none"
         d="m 699.5,100.996 c 52.406,0 82.125,33.617 90.766,62.797 l -39.203,12.668 c -5.641,-14.77 -17.774,-36.563 -50.665,-36.563 -32.722,0 -56.976,25.7 -56.976,61.594 0,36.446 25.336,60.156 56.613,60.156 31.817,0 45.93,-20.953 50.313,-35.898 l 38.84,12.664 c -8.047,32.606 -41.309,62.141 -88.973,62.141 -57.328,0 -100.738,-44.848 -100.738,-99.778 0,-56.679 43.41,-99.781 100.023,-99.781 z m 150.223,100.559 c 0,33.199 22.871,60.093 57.699,60.093 34.816,0 57.625,-27.554 57.625,-60.933 0,-33.082 -22.449,-60.817 -57.27,-60.817 -34.82,0 -58.054,28.817 -58.054,61.657 z m -43.825,-0.84 c 0,-56.617 45.926,-99.719 101.524,-99.719 56.426,0 101.208,43.828 101.208,100.559 0,56.433 -45.681,99 -100.853,99 -55.953,0 -101.879,-42.746 -101.879,-99.84 z m 273.042,-96.473 v 293.383 h -42.87 V 104.242 Z m 148.89,78.164 c 0,-29.176 -18.67,-47.191 -47.97,-47.191 -18.13,0 -30.62,10.57 -30.62,26.297 0,18.191 20.78,27.015 36.99,27.015 h 41.6 z m 42.38,44.422 c 0,12.969 -1.79,24.055 -6.48,34.219 -12.89,27.953 -39.8,39.445 -72.22,39.445 -14.11,0 -28.04,-2.461 -39.14,-7.383 -26.66,-11.828 -41.42,-36.082 -42.99,-52.23 l 38.78,-8.762 c 3.19,18.426 18.68,31.754 42.15,31.754 35.12,0 37.88,-23.516 37.88,-44.957 h -41.78 c -37.48,0 -80.03,-14.48 -80.03,-59.082 0,-37.879 28.87,-58.836 64.9,-58.836 17.95,0 43.08,6.258 57.05,26.09 l 4.62,-22.844 h 37.26 z M 481.367,100.996 c 62.793,0 97.797,41.543 97.797,82.367 0,41.907 -26.535,72.043 -76.965,81.891 l -35.844,7.019 c -22.753,4.442 -35.597,21.493 -35.597,37.524 0,21.672 20.949,40.824 48.687,40.824 30.016,0 49.047,-22.336 53.969,-42.383 l 41.305,13.032 c -5.766,30.429 -31.938,69.335 -96.172,69.335 -50.793,0 -93.176,-38.367 -93.176,-84.832 0,-36.976 25.156,-67.652 71.504,-76.96 l 34.758,-7.028 c 23.953,-4.922 41.781,-17.949 41.781,-41.242 0,-23.773 -22.934,-39.563 -51.148,-39.563 -33.86,0 -56.434,21.25 -62.618,54.211 l -42.867,-11.828 c 4.207,-39.742 38.668,-82.367 104.586,-82.367" /></g></g></svg>